Coordinates
version=1
nRows=10
nColumns=63
inDegrees=yes

Units are S.I. units (second, meters, Newtons, ...)
If the header above contains a line with 'inDegrees', this indicates whether rotational values are in degrees (yes) or radians (no).

endheader
time	pelvis_tilt	pelvis_list	pelvis_rotation	pelvis_tx	pelvis_ty	pelvis_tz	hip_flexion_r	hip_adduction_r	hip_rotation_r	knee_angle_r	knee_angle_r_beta	ankle_angle_r	subtalar_angle_r	mtp_angle_r	hip_flexion_l	hip_adduction_l	hip_rotation_l	knee_angle_l	knee_angle_l_beta	ankle_angle_l	subtalar_angle_l	mtp_angle_l	L5_S1_Flex_Ext	L5_S1_Lat_Bending	L5_S1_axial_rotation	L4_L5_Flex_Ext	L4_L5_Lat_Bending	L4_L5_axial_rotation	L3_L4_Flex_Ext	L3_L4_Lat_Bending	L3_L4_axial_rotation	L2_L3_Flex_Ext	L2_L3_Lat_Bending	L2_L3_axial_rotation	L1_L2_Flex_Ext	L1_L2_Lat_Bending	L1_L2_axial_rotation	L1_T12_Flex_Ext	L1_T12_Lat_Bending	L1_T12_axial_rotation	Abs_r3	Abs_r2	Abs_r1	Abs_t1	Abs_t2	neck_flexion	neck_bending	neck_rotation	arm_flex_r	arm_add_r	arm_rot_r	elbow_flex_r	pro_sup_r	wrist_flex_r	wrist_dev_r	arm_flex_l	arm_add_l	arm_rot_l	elbow_flex_l	pro_sup_l	wrist_flex_l	wrist_dev_l
     10.47500000	    -60.96613049	     -3.83784004	      0.26276114	     -0.27372347	      1.09981331	     -0.03385142	    122.65617214	    -10.58836390	     -7.56745019	     90.20120888	      1.57430808	     21.65055037	      5.40274540	      0.00000000	     98.66849310	     -6.19908415	      1.29506481	     75.48815432	      1.31751684	     11.88499041	      2.26422489	      0.00000000	     -0.09679866	      0.74577107	     -0.25392569	     -0.17976480	      0.99187552	     -0.26979604	     -0.15903053	      1.81326777	     -0.26979604	     -0.11063119	      1.81326777	     -0.22218498	     -0.08988724	      1.52077636	     -0.20631462	     -0.05531076	      1.15519938	     -0.19044427	     -0.69142318	      8.43631148	     -1.41225850	      0.00000000	      0.00000000	     -0.00000000	      0.00000000	      0.00000000	     69.16686119	    -20.17070570	     29.24759340	     50.06250259	     50.95673577	      0.00000000	      5.00000015	     60.61481862	    -19.87397976	     13.28588850	     55.01516815	     51.46762279	      0.00000000	      5.00000015
     10.48300000	    -60.96390045	     -3.80910721	      0.99646714	     -0.27433564	      1.10000793	     -0.03423548	    122.04940591	    -10.95180946	     -7.22196768	     88.52617353	      1.54507320	     21.24942744	      5.47236746	      0.00000000	     99.26450882	     -5.62259432	      1.21076731	     77.13940977	      1.34633668	     12.17021807	      2.10543045	      0.00000000	     -0.09849024	      0.72685274	     -0.36793032	     -0.18290622	      0.96671414	     -0.39092596	     -0.16180961	      1.76726975	     -0.39092596	     -0.11256449	      1.76726975	     -0.32193903	     -0.09145803	      1.48219811	     -0.29894338	     -0.05627732	      1.12589490	     -0.27594774	     -0.70350591	      8.22230357	     -2.04631805	      0.00000000	      0.00000000	     -0.00000000	      0.00000000	      0.00000000	     69.16972201	    -20.23150772	     29.18120105	     50.08552670	     50.95157992	      0.00000000	      5.00000015	     60.82573472	    -19.83584881	     13.27015219	     55.02591530	     51.46761681	      0.00000000	      5.00000015
     10.49200000	    -60.94018715	     -3.94400019	      1.43922679	     -0.27479298	      1.10008684	     -0.03419892	    121.28517145	    -11.05563752	     -7.07567112	     86.81740016	      1.51524948	     20.93387927	      5.58437918	      0.00000000	    100.02063838	     -5.23789705	      1.53352864	     79.04219069	      1.37954648	     12.13275037	      1.75888115	      0.00000000	     -0.10052775	      0.73022751	     -0.44913654	     -0.18669008	      0.97120259	     -0.47720757	     -0.16515704	      1.77547517	     -0.47720757	     -0.11489316	      1.77547517	     -0.39299447	     -0.09335007	      1.48907994	     -0.36492344	     -0.05744156	      1.13112242	     -0.33685241	     -0.71805965	      8.26047966	     -2.49796270	      0.00000000	      0.00000000	     -0.00000000	      0.00000000	      0.00000000	     69.14503225	    -20.10106001	     29.00715400	     50.02068770	     50.93533918	      0.00000000	      5.00000015	     61.02943406	    -19.93965127	     13.34581909	     54.89138920	     51.47847558	      0.00000000	      5.00000015
     10.50000000	    -60.98312061	     -4.36312451	      1.63891816	     -0.27524483	      1.10045969	     -0.03432657	    120.31083849	    -11.18148436	     -7.52721594	     84.82053523	      1.48039761	     20.70453652	      5.77942172	      0.00000000	    100.90059571	     -5.05610280	      1.95951282	     80.86061259	      1.41128392	     11.47029696	      0.62737603	      0.00000000	     -0.09593531	      0.77486706	     -0.44899727	     -0.17816147	      1.03057319	     -0.47705960	     -0.15761212	      1.88401177	     -0.47705960	     -0.10964447	      1.88401177	     -0.39287261	     -0.08908553	      1.58010891	     -0.36481029	     -0.05481744	      1.20026908	     -0.33674796	     -0.68525634	      8.76545115	     -2.49718814	      0.00000000	      0.00000000	     -0.00000000	      0.00000000	      0.00000000	     69.16633426	    -20.20318963	     28.64159105	     49.89069110	     50.91032770	      0.00000000	      5.00000015	     61.22452234	    -19.75096307	     13.64233397	     54.72149939	     51.51360874	      0.00000000	      5.00000015
     10.50800000	    -60.97618281	     -4.44247349	      2.11037682	     -0.27555603	      1.10076055	     -0.03457466	    119.48115383	    -11.31419439	     -7.37242725	     83.01329213	      1.44885527	     20.26856624	      5.82583785	      0.00000000	    101.56467077	     -4.61046498	      2.12352133	     82.53146198	      1.44044575	     11.46995510	      0.20636375	      0.00000000	     -0.09650024	      0.77205499	     -0.51623681	     -0.17921060	      1.02683314	     -0.54850161	     -0.15854024	      1.87717451	     -0.54850161	     -0.11029012	      1.87717451	     -0.45170721	     -0.08961012	      1.57437455	     -0.41944240	     -0.05514024	      1.19591319	     -0.38717760	     -0.68929156	      8.73364051	     -2.87115424	      0.00000000	      0.00000000	     -0.00000000	      0.00000000	      0.00000000	     69.12320450	    -20.19819066	     28.42517464	     49.81148015	     50.89522638	      0.00000000	      5.00000015	     61.44764835	    -19.73445533	     13.83760831	     54.61501975	     51.53843465	      0.00000000	      5.00000015
     10.51700000	    -60.97658796	     -4.54014337	      2.56439201	     -0.27575901	      1.10104181	     -0.03486786	    118.61518338	    -11.44743660	     -7.25303858	     81.20846867	      1.41735516	     19.80680307	      5.82342421	      0.00000000	    102.20559982	     -4.15067040	      2.32467949	     84.14672304	      1.46863737	     11.66317651	     -0.07125244	      0.00000000	     -0.09561572	      0.77162235	     -0.57839373	     -0.17756795	      1.02625772	     -0.61454334	     -0.15708706	      1.87612258	     -0.61454334	     -0.10927920	      1.87612258	     -0.50609451	     -0.08878876	      1.57349229	     -0.46994491	     -0.05463482	      1.19524302	     -0.43379530	     -0.68297351	      8.72874632	     -3.21685241	      0.00000000	      0.00000000	     -0.00000000	      0.00000000	      0.00000000	     69.01762093	    -20.22852755	     28.16184921	     49.84254725	     50.87422501	      0.00000000	      5.00000015	     61.66623341	    -19.71903037	     14.07985116	     54.50613979	     51.56791560	      0.00000000	      5.00000015
     10.52500000	    -60.95845779	     -4.47519047	      3.21936576	     -0.27587174	      1.10124289	     -0.03540067	    117.83070433	    -11.74194140	     -6.90996157	     79.56769212	      1.38871821	     19.30020711	      5.85606736	      0.00000000	    102.75172728	     -3.51766329	      2.29508382	     85.68676678	      1.49551621	     12.05163818	     -0.18644515	      0.00000000	     -0.09627736	      0.74921031	     -0.67843803	     -0.17879669	      0.99644971	     -0.72084041	     -0.15817408	      1.82162995	     -0.72084041	     -0.11003540	      1.82162995	     -0.59363328	     -0.08940316	      1.52778966	     -0.55123090	     -0.05501289	      1.16052677	     -0.50882852	     -0.68769957	      8.47521686	     -3.77326879	      0.00000000	      0.00000000	     -0.00000000	      0.00000000	      0.00000000	     68.91411948	    -20.29613813	     28.07901285	     49.90203287	     50.86668267	      0.00000000	      5.00000015	     61.82364524	    -19.69168593	     14.13331248	     54.50537516	     51.57483121	      0.00000000	      5.00000015
     10.53300000	    -60.96276686	     -4.71325538	      3.41614280	     -0.27581638	      1.10148052	     -0.03549352	    116.79318061	    -11.67890989	     -6.99056023	     77.66807223	      1.35556358	     18.85231829	      5.78977998	      0.00000000	    103.40063234	     -3.20523603	      2.79492346	     87.27975960	      1.52331918	     12.59801127	     -0.31024926	      0.00000000	     -0.09341355	      0.77124082	     -0.70370009	     -0.17347830	      1.02575029	     -0.74768135	     -0.15346912	      1.87519493	     -0.74768135	     -0.10676234	      1.87519493	     -0.61573758	     -0.08674382	      1.57271428	     -0.57175632	     -0.05337650	      1.19465203	     -0.52777507	     -0.66724363	      8.72443040	     -3.91376879	      0.00000000	      0.00000000	     -0.00000000	      0.00000000	      0.00000000	     68.76443592	    -20.24374914	     27.70423985	     49.93584187	     50.83083260	      0.00000000	      5.00000015	     61.92054787	    -19.76542324	     14.46561331	     54.40637331	     51.61202941	      0.00000000	      5.00000015
     10.54200000	    -60.92151720	     -4.93136175	      3.60304377	     -0.27562819	      1.10146759	     -0.03565864	    115.73760651	    -11.73897645	     -7.30032180	     75.91849230	      1.32502765	     18.36236045	      5.62950991	      0.00000000	    104.02855788	     -2.94927069	      3.21987413	     88.96439499	      1.55272161	     13.40978772	     -0.27756500	      0.00000000	     -0.09515061	      0.79012009	     -0.71557588	     -0.17670420	      1.05085972	     -0.76029937	     -0.15632294	      1.92109799	     -0.76029937	     -0.10874763	      1.92109799	     -0.62612889	     -0.08835686	      1.61121289	     -0.58140540	     -0.05436906	      1.22389602	     -0.53668191	     -0.67965130	      8.93799651	     -3.97981836	      0.00000000	      0.00000000	     -0.00000000	      0.00000000	      0.00000000	     68.63271426	    -20.31822426	     27.37780601	     50.01317090	     50.80360676	      0.00000000	      5.00000015	     61.98449198	    -19.73232953	     14.67852621	     54.42730496	     51.63852197	      0.00000000	      5.00000015
     10.55000000	    -60.87518575	     -5.09005068	      3.79122611	     -0.27530586	      1.10136681	     -0.03582399	    114.68440138	    -11.76950379	     -7.50833191	     74.21839767	      1.29535540	     17.83504058	      5.47239396	      0.00000000	    104.64554377	     -2.68709612	      3.61224355	     90.59894603	      1.58124991	     14.35057953	     -0.21377323	      0.00000000	     -0.09479613	      0.80247348	     -0.74273863	     -0.17604589	      1.06728973	     -0.78915979	     -0.15574056	      1.95113402	     -0.78915979	     -0.10834250	      1.95113402	     -0.64989630	     -0.08802769	      1.63640392	     -0.60347514	     -0.05416651	      1.24303142	     -0.55705397	     -0.67711927	      9.07774049	     -4.13088943	      0.00000000	      0.00000000	     -0.00000000	      0.00000000	      0.00000000	     68.50993597	    -20.33422955	     27.23139898	     50.06242904	     50.79544064	      0.00000000	      5.00000015	     61.93504926	    -19.76316943	     14.72798783	     54.50778329	     51.64940475	      0.00000000	      5.00000015
